<svg xmlns="http://www.w3.org/2000/svg" xmlns:xlink="http://www.w3.org/1999/xlink" width="500" zoomAndPan="magnify" viewBox="0 0 375 374.999991" height="500" preserveAspectRatio="xMidYMid meet" version="1.0"><defs><filter x="0%" y="0%" width="100%" height="100%" id="eb25d9b3a0"><feColorMatrix values="0 0 0 0 1 0 0 0 0 1 0 0 0 0 1 0 0 0 1 0" color-interpolation-filters="sRGB"/></filter><g/><clipPath id="513d47c852"><path d="M 70.5 70.5 L 304.5 70.5 L 304.5 304.5 L 70.5 304.5 Z M 70.5 70.5 " clip-rule="nonzero"/></clipPath><clipPath id="38d592fe13"><path d="M 187.5 70.5 C 122.882812 70.5 70.5 122.882812 70.5 187.5 C 70.5 252.117188 122.882812 304.5 187.5 304.5 C 252.117188 304.5 304.5 252.117188 304.5 187.5 C 304.5 122.882812 252.117188 70.5 187.5 70.5 Z M 187.5 70.5 " clip-rule="nonzero"/></clipPath><clipPath id="8e2e7fa49a"><path d="M 76.328125 76.328125 L 298.671875 76.328125 L 298.671875 298.671875 L 76.328125 298.671875 Z M 76.328125 76.328125 " clip-rule="nonzero"/></clipPath><clipPath id="7c30f1aba4"><path d="M 187.5 76.328125 C 126.101562 76.328125 76.328125 126.101562 76.328125 187.5 C 76.328125 248.898438 126.101562 298.671875 187.5 298.671875 C 248.898438 298.671875 298.671875 248.898438 298.671875 187.5 C 298.671875 126.101562 248.898438 76.328125 187.5 76.328125 Z M 187.5 76.328125 " clip-rule="nonzero"/></clipPath><clipPath id="5bb61b2381"><path d="M 84.3125 84.3125 L 290.6875 84.3125 L 290.6875 290.6875 L 84.3125 290.6875 Z M 84.3125 84.3125 " clip-rule="nonzero"/></clipPath><clipPath id="c1b0c5036b"><path d="M 187.5 84.3125 C 130.511719 84.3125 84.3125 130.511719 84.3125 187.5 C 84.3125 244.488281 130.511719 290.6875 187.5 290.6875 C 244.488281 290.6875 290.6875 244.488281 290.6875 187.5 C 290.6875 130.511719 244.488281 84.3125 187.5 84.3125 Z M 187.5 84.3125 " clip-rule="nonzero"/></clipPath><clipPath id="3c551673b0"><path d="M 124.5 124.5 L 250.5 124.5 L 250.5 250.5 L 124.5 250.5 Z M 124.5 124.5 " clip-rule="nonzero"/></clipPath><clipPath id="67fd360c60"><path d="M 187.5 124.5 C 152.707031 124.5 124.5 152.707031 124.5 187.5 C 124.5 222.292969 152.707031 250.5 187.5 250.5 C 222.292969 250.5 250.5 222.292969 250.5 187.5 C 250.5 152.707031 222.292969 124.5 187.5 124.5 Z M 187.5 124.5 " clip-rule="nonzero"/></clipPath><clipPath id="0e6b57f4d3"><path d="M 98.257812 179.222656 L 115.707031 179.222656 L 115.707031 195.839844 L 98.257812 195.839844 Z M 98.257812 179.222656 " clip-rule="nonzero"/></clipPath><clipPath id="c86e63e419"><path d="M 107.265625 179.449219 L 109.695312 184.386719 C 109.734375 184.472656 109.820312 184.535156 109.917969 184.546875 L 115.367188 185.339844 C 115.601562 185.375 115.699219 185.671875 115.527344 185.832031 L 111.585938 189.671875 C 111.511719 189.734375 111.488281 189.835938 111.5 189.933594 L 112.425781 195.367188 C 112.464844 195.601562 112.214844 195.785156 112.007812 195.675781 L 107.128906 193.105469 C 107.042969 193.058594 106.941406 193.058594 106.855469 193.105469 L 101.976562 195.675781 C 101.769531 195.785156 101.519531 195.601562 101.558594 195.367188 L 102.484375 189.933594 C 102.496094 189.835938 102.472656 189.746094 102.398438 189.671875 L 98.472656 185.832031 C 98.296875 185.660156 98.398438 185.375 98.632812 185.339844 L 104.078125 184.546875 C 104.175781 184.535156 104.25 184.472656 104.300781 184.386719 L 106.734375 179.449219 C 106.84375 179.238281 107.152344 179.238281 107.265625 179.449219 Z M 107.265625 179.449219 " clip-rule="nonzero"/></clipPath><clipPath id="fa3f050618"><path d="M 259.246094 179.222656 L 276.699219 179.222656 L 276.699219 195.839844 L 259.246094 195.839844 Z M 259.246094 179.222656 " clip-rule="nonzero"/></clipPath><clipPath id="a4d95ad42e"><path d="M 268.253906 179.449219 L 270.6875 184.386719 C 270.722656 184.472656 270.8125 184.535156 270.910156 184.546875 L 276.355469 185.339844 C 276.589844 185.375 276.691406 185.671875 276.515625 185.832031 L 272.578125 189.671875 C 272.503906 189.734375 272.476562 189.835938 272.492188 189.933594 L 273.417969 195.367188 C 273.453125 195.601562 273.207031 195.785156 272.996094 195.675781 L 268.117188 193.105469 C 268.03125 193.058594 267.933594 193.058594 267.847656 193.105469 L 262.96875 195.675781 C 262.757812 195.785156 262.511719 195.601562 262.546875 195.367188 L 263.476562 189.933594 C 263.488281 189.835938 263.460938 189.746094 263.386719 189.671875 L 259.460938 185.832031 C 259.289062 185.660156 259.386719 185.375 259.621094 185.339844 L 265.066406 184.546875 C 265.167969 184.535156 265.242188 184.472656 265.289062 184.386719 L 267.722656 179.449219 C 267.835938 179.238281 268.144531 179.238281 268.253906 179.449219 Z M 268.253906 179.449219 " clip-rule="nonzero"/></clipPath><mask id="c9539e1705"><g filter="url(#eb25d9b3a0)"><rect x="-37.5" width="450" fill="#000000" y="-37.499999" height="449.999989" fill-opacity="0.2"/></g></mask><clipPath id="047a488eac"><path d="M 0.519531 8 L 77.558594 8 L 77.558594 40 L 0.519531 40 Z M 0.519531 8 " clip-rule="nonzero"/></clipPath><clipPath id="4c35bbe2fa"><path d="M 0.519531 0.394531 L 66 0.394531 L 66 57 L 0.519531 57 Z M 0.519531 0.394531 " clip-rule="nonzero"/></clipPath><clipPath id="f8007cad8d"><path d="M 13 0.394531 L 67 0.394531 L 67 94.894531 L 13 94.894531 Z M 13 0.394531 " clip-rule="nonzero"/></clipPath><clipPath id="267cc19107"><path d="M 31 0.394531 L 64 0.394531 L 64 94 L 31 94 Z M 31 0.394531 " clip-rule="nonzero"/></clipPath><clipPath id="8447fd8790"><path d="M 12 0.394531 L 75 0.394531 L 75 94.894531 L 12 94.894531 Z M 12 0.394531 " clip-rule="nonzero"/></clipPath><clipPath id="efa1f563b1"><path d="M 12 0.394531 L 45 0.394531 L 45 94.894531 L 12 94.894531 Z M 12 0.394531 " clip-rule="nonzero"/></clipPath><clipPath id="8b8e08a8bb"><rect x="0" width="78" y="0" height="95"/></clipPath><clipPath id="953020690d"><path d="M 139 141 L 236 141 L 236 225 L 139 225 Z M 139 141 " clip-rule="nonzero"/></clipPath><clipPath id="d81e21f271"><path d="M 162.015625 133.605469 L 238.640625 159.859375 L 213.117188 234.359375 L 136.488281 208.101562 Z M 162.015625 133.605469 " clip-rule="nonzero"/></clipPath><clipPath id="8e58abc5b0"><path d="M 162.015625 133.605469 L 238.640625 159.859375 L 213.117188 234.359375 L 136.488281 208.101562 Z M 162.015625 133.605469 " clip-rule="nonzero"/></clipPath></defs><g clip-path="url(#513d47c852)"><g clip-path="url(#38d592fe13)"><path fill="#8c3c8d" d="M 70.5 70.5 L 304.5 70.5 L 304.5 304.5 L 70.5 304.5 Z M 70.5 70.5 " fill-opacity="1" fill-rule="nonzero"/></g></g><g clip-path="url(#8e2e7fa49a)"><g clip-path="url(#7c30f1aba4)"><path fill="#ffffff" d="M 76.328125 76.328125 L 298.671875 76.328125 L 298.671875 298.671875 L 76.328125 298.671875 Z M 76.328125 76.328125 " fill-opacity="1" fill-rule="nonzero"/></g></g><g clip-path="url(#5bb61b2381)"><g clip-path="url(#c1b0c5036b)"><path fill="#8c3c8d" d="M 84.3125 84.3125 L 290.6875 84.3125 L 290.6875 290.6875 L 84.3125 290.6875 Z M 84.3125 84.3125 " fill-opacity="1" fill-rule="nonzero"/></g></g><g clip-path="url(#3c551673b0)"><g clip-path="url(#67fd360c60)"><path fill="#ffffff" d="M 124.5 124.5 L 250.5 124.5 L 250.5 250.5 L 124.5 250.5 Z M 124.5 124.5 " fill-opacity="1" fill-rule="nonzero"/></g></g><g clip-path="url(#0e6b57f4d3)"><g clip-path="url(#c86e63e419)"><path fill="#ffffff" d="M 98.382812 179.289062 L 115.644531 179.289062 L 115.644531 195.710938 L 98.382812 195.710938 Z M 98.382812 179.289062 " fill-opacity="1" fill-rule="nonzero"/></g></g><g clip-path="url(#fa3f050618)"><g clip-path="url(#a4d95ad42e)"><path fill="#ffffff" d="M 259.375 179.289062 L 276.632812 179.289062 L 276.632812 195.710938 L 259.375 195.710938 Z M 259.375 179.289062 " fill-opacity="1" fill-rule="nonzero"/></g></g><g mask="url(#c9539e1705)"><g transform="matrix(1, 0, 0, 1, 149, 140)"><g clip-path="url(#8b8e08a8bb)"><g clip-path="url(#047a488eac)"><path fill="#8c3c8d" d="M 15.953125 34.875 L 16.402344 39.648438 C 16.402344 39.648438 16.222656 39.601562 15.902344 39.488281 C 15.683594 39.410156 15.398438 39.304688 15.058594 39.164062 C 14.898438 39.097656 14.726562 39.023438 14.542969 38.941406 C 14.308594 38.839844 14.054688 38.71875 13.789062 38.589844 C 10.242188 36.84375 4.0625 32.640625 1.625 23.832031 C -0.0859375 17.640625 1.203125 13.296875 3.828125 10.761719 C 5.453125 9.1875 7.589844 8.308594 9.847656 8.113281 C 10.753906 8.03125 11.675781 8.0625 12.59375 8.207031 C 12.703125 8.222656 12.8125 8.242188 12.921875 8.261719 C 13.113281 8.296875 13.304688 8.335938 13.496094 8.378906 C 13.855469 8.464844 14.214844 8.566406 14.566406 8.683594 L 14.566406 14.203125 C 14.566406 14.203125 14.394531 14.121094 14.09375 14.007812 C 13.898438 13.933594 13.648438 13.847656 13.359375 13.757812 C 13.277344 13.734375 13.1875 13.707031 13.097656 13.679688 C 12.375 13.480469 11.457031 13.300781 10.519531 13.320312 C 8.222656 13.371094 5.804688 14.617188 5.804688 19.640625 C 5.804688 25.820312 10.042969 30.375 13.042969 32.824219 C 13.441406 33.148438 13.816406 33.4375 14.15625 33.6875 C 14.46875 33.914062 14.753906 34.113281 15 34.277344 C 15.589844 34.671875 15.953125 34.875 15.953125 34.875 Z M 69.015625 8.1875 C 69.015625 8.1875 69.011719 8.1875 69.003906 8.1875 C 68.285156 8.082031 67.554688 8.046875 66.820312 8.082031 L 66.8125 8.082031 C 66.246094 8.113281 65.679688 8.183594 65.117188 8.296875 C 65.113281 8.296875 65.105469 8.296875 65.101562 8.296875 C 65.101562 8.296875 65.101562 8.296875 65.097656 8.296875 C 64.71875 8.375 64.339844 8.46875 63.964844 8.582031 C 63.859375 8.613281 63.753906 8.648438 63.648438 8.683594 L 63.648438 14.203125 C 63.648438 14.203125 64.039062 14.019531 64.660156 13.820312 C 64.660156 13.820312 64.660156 13.820312 64.660156 13.816406 C 65.402344 13.578125 66.46875 13.316406 67.570312 13.320312 C 67.886719 13.320312 68.203125 13.34375 68.519531 13.394531 C 70.53125 13.726562 72.410156 15.21875 72.410156 19.640625 C 72.410156 24.832031 69.417969 28.875 66.6875 31.488281 C 66.390625 31.769531 66.097656 32.03125 65.816406 32.277344 C 64.695312 33.253906 63.6875 33.96875 63.03125 34.398438 C 62.550781 34.714844 62.261719 34.875 62.261719 34.875 L 61.8125 39.648438 C 61.8125 39.648438 61.890625 39.628906 62.03125 39.582031 C 62.570312 39.410156 64.066406 38.871094 65.929688 37.777344 C 69.519531 35.671875 74.46875 31.496094 76.585938 23.832031 C 79.257812 14.175781 74.625 9.015625 69.015625 8.1875 Z M 69.015625 8.1875 " fill-opacity="1" fill-rule="nonzero"/></g><g clip-path="url(#4c35bbe2fa)"><path fill="#8c3c8d" d="M 65.097656 2.332031 C 65.019531 2.785156 64.941406 3.238281 64.863281 3.695312 C 64.863281 3.699219 64.863281 3.710938 64.859375 3.71875 C 63.925781 9.082031 62.769531 14.414062 62 19.808594 C 61.78125 21.332031 61.628906 22.863281 61.378906 24.382812 C 61.121094 25.984375 60.796875 27.570312 60.550781 29.171875 C 60.304688 30.800781 60.03125 32.519531 60.167969 34.171875 C 60.28125 35.492188 60.917969 36.921875 60.960938 38.070312 C 60.917969 38.136719 60.878906 38.203125 60.839844 38.269531 C 60.375 39.042969 59.871094 39.792969 59.347656 40.527344 C 59.078125 40.699219 58.832031 40.933594 58.632812 41.214844 C 58.246094 41.761719 57.898438 42.332031 57.5625 42.914062 C 57.46875 43.03125 57.378906 43.148438 57.289062 43.265625 C 56.003906 44.886719 54.738281 46.535156 53.398438 48.109375 C 52.46875 49.207031 51.277344 50.402344 50.28125 51.117188 C 48.972656 52.050781 47.910156 52.503906 46.34375 52.773438 C 45.539062 52.910156 44.996094 53.652344 44.863281 54.433594 C 44.816406 54.699219 44.816406 54.96875 44.871094 55.21875 C 44.875 55.253906 44.886719 55.289062 44.894531 55.324219 C 44.964844 55.582031 45.078125 55.804688 45.214844 55.996094 C 44.921875 56.074219 44.625 56.148438 44.328125 56.214844 C 42.957031 56.527344 41.539062 56.722656 40.085938 56.785156 L 40.070312 56.785156 C 39.707031 56.804688 39.347656 56.8125 38.980469 56.8125 C 36.53125 56.8125 34.164062 56.445312 31.9375 55.761719 C 31.820312 55.726562 31.703125 55.691406 31.585938 55.652344 L 31.582031 55.652344 C 24.417969 53.335938 18.726562 47.746094 16.269531 40.648438 C 16.140625 40.265625 16.015625 39.878906 15.902344 39.488281 C 15.683594 39.410156 15.398438 39.304688 15.058594 39.164062 C 14.898438 39.097656 14.726562 39.023438 14.542969 38.941406 C 14.308594 38.839844 14.054688 38.71875 13.789062 38.589844 C 10.242188 36.84375 4.0625 32.640625 1.628906 23.832031 C -0.0859375 17.640625 1.203125 13.296875 3.828125 10.761719 C 3.828125 10.761719 -2.277344 23.132812 9.847656 33.480469 C 9.847656 33.480469 11.832031 35.191406 13.492188 36.296875 L 13.042969 32.824219 C 13.441406 33.148438 13.816406 33.4375 14.15625 33.6875 C 14.46875 33.914062 14.753906 34.113281 15 34.277344 C 14.992188 34.09375 14.980469 33.914062 14.976562 33.730469 L 14.953125 33.730469 L 13.359375 13.757812 C 13.277344 13.734375 13.1875 13.707031 13.097656 13.679688 C 12.375 13.480469 11.457031 13.300781 10.519531 13.320312 L 9.847656 8.113281 C 10.753906 8.035156 11.675781 8.0625 12.59375 8.207031 C 12.703125 8.222656 12.8125 8.242188 12.921875 8.261719 L 12.785156 6.527344 L 12.726562 5.839844 L 12.558594 3.699219 L 12.558594 3.695312 L 12.296875 0.417969 L 14.882812 0.417969 C 14.960938 1.394531 15.710938 2.132812 16.648438 2.296875 C 16.746094 2.3125 16.847656 2.320312 16.949219 2.328125 C 18.339844 2.378906 19.730469 2.460938 21.117188 2.5625 C 25.179688 2.851562 29.230469 3.296875 33.289062 3.695312 C 34.6875 3.832031 36.089844 3.960938 37.488281 4.078125 C 40.3125 4.316406 43.144531 4.433594 45.976562 4.488281 C 50.0625 4.566406 54.148438 4.515625 58.234375 4.515625 C 58.785156 4.515625 59.292969 4.289062 59.667969 3.929688 C 59.742188 3.855469 59.8125 3.777344 59.878906 3.695312 C 60.121094 3.375 60.277344 2.988281 60.304688 2.566406 C 60.792969 2.550781 61.285156 2.535156 61.777344 2.535156 C 62.882812 2.535156 64.003906 2.496094 65.097656 2.332031 Z M 65.097656 2.332031 " fill-opacity="1" fill-rule="nonzero"/></g><g clip-path="url(#f8007cad8d)"><path fill="#8c3c8d" d="M 66.359375 93.074219 L 65.265625 94.570312 L 15.050781 94.570312 L 13.929688 93.074219 C 15.035156 88.972656 18.144531 86.035156 20.832031 84.179688 C 22.195312 83.234375 23.453125 82.570312 24.277344 82.175781 L 24.277344 78.449219 L 34.324219 78.449219 L 34.324219 67.707031 L 32.3125 67.707031 L 32.3125 64.621094 L 34.324219 64.621094 L 34.324219 58.453125 L 31.9375 58.453125 L 31.9375 55.21875 L 33.722656 55.21875 C 33.304688 55.082031 32.886719 54.933594 32.476562 54.769531 C 32.023438 54.59375 31.578125 54.402344 31.136719 54.199219 C 31.136719 54.199219 31.136719 54.199219 31.132812 54.199219 C 30.945312 54.113281 30.761719 54.023438 30.574219 53.929688 C 22.910156 50.140625 17.5625 42.378906 17.214844 33.332031 L 17.191406 33.332031 L 14.992188 5.75 L 14.828125 3.691406 L 14.566406 0.417969 L 65.722656 0.417969 L 65.464844 3.691406 L 65.109375 8.1875 L 65.101562 8.296875 L 64.660156 13.816406 L 63.03125 34.398438 L 63.007812 34.722656 L 62.929688 34.722656 C 62.796875 36.394531 62.492188 38.023438 62.03125 39.582031 C 61.421875 41.648438 60.542969 43.59375 59.441406 45.386719 C 59.4375 45.386719 59.4375 45.390625 59.4375 45.390625 C 59.4375 45.394531 59.4375 45.394531 59.4375 45.394531 C 59.429688 45.402344 59.425781 45.410156 59.421875 45.417969 C 59.40625 45.4375 59.386719 45.46875 59.363281 45.507812 C 58.796875 46.410156 58.175781 47.273438 57.5 48.09375 C 57.496094 48.09375 57.496094 48.097656 57.496094 48.097656 C 54.882812 51.25 51.484375 53.726562 47.597656 55.21875 L 47.65625 55.21875 L 47.65625 58.453125 L 44.871094 58.453125 L 44.871094 64.621094 L 47.234375 64.621094 L 47.234375 67.707031 L 44.871094 67.707031 L 44.871094 78.449219 L 55.019531 78.449219 L 55.019531 81.734375 C 55.023438 81.734375 64.273438 85.320312 66.359375 93.074219 Z M 66.359375 93.074219 " fill-opacity="1" fill-rule="nonzero"/></g><g clip-path="url(#267cc19107)"><path fill="#8c3c8d" d="M 62.367188 3.855469 L 57.257812 3.855469 C 57.367188 1.734375 57.441406 0.417969 57.441406 0.417969 L 62.714844 0.417969 Z M 59.4375 32.984375 L 62.222656 5.304688 L 57.183594 5.304688 C 56.933594 10.1875 56.558594 17.878906 56.335938 24.355469 C 56.300781 25.285156 56.273438 26.191406 56.246094 27.058594 C 56.246094 27.058594 56.253906 27.117188 56.265625 27.230469 C 56.027344 31.859375 55.027344 41.105469 50.890625 47.613281 C 49.96875 48.785156 48.902344 49.894531 47.660156 50.902344 L 47.65625 50.902344 C 57.371094 47.828125 59.4375 32.984375 59.4375 32.984375 Z M 42.730469 59.148438 L 41.222656 61.4375 L 41.222656 64.296875 L 42.730469 64.15625 Z M 41.222656 77.589844 L 42.21875 77.824219 L 42.730469 77.945312 L 42.730469 69.097656 L 41.222656 69.695312 Z M 52.476562 82.296875 L 52.476562 78.449219 L 31.324219 78.449219 L 31.910156 79.195312 L 47.65625 79.195312 L 47.65625 81.988281 C 47.65625 81.988281 58.84375 86.808594 59.4375 93.824219 L 63.210938 93.824219 C 63.210938 93.824219 60.640625 85.246094 52.476562 82.296875 Z M 42.21875 65.167969 L 42.21875 68.226562 L 44.382812 68.226562 L 44.382812 64.296875 L 42.519531 64.578125 L 35.136719 64.296875 L 35.578125 65.167969 Z M 42.21875 65.167969 " fill-opacity="1" fill-rule="nonzero"/></g><g clip-path="url(#8447fd8790)"><path fill="#8c3c8d" d="M 14.566406 8.070312 L 14.566406 12.714844 L 17.222656 38.007812 C 17.222656 38.007812 16.855469 38.496094 17.113281 39.050781 C 16.992188 39.167969 16.886719 39.300781 16.796875 39.445312 C 16.585938 39.78125 16.464844 40.167969 16.46875 40.566406 C 16.472656 40.746094 16.496094 40.921875 16.550781 41.101562 C 16.871094 42.175781 17.507812 43.035156 18.0625 43.988281 C 18.570312 44.867188 18.855469 45.84375 19.4375 46.6875 C 20.691406 48.519531 22.578125 49.929688 24.25 51.351562 C 24.835938 51.847656 25.589844 52.058594 26.277344 51.882812 L 26.910156 52.535156 L 30.652344 55.121094 L 31.910156 55.296875 L 31.9375 55.296875 L 31.9375 58.453125 L 34.324219 58.453125 L 34.324219 64.621094 L 32.3125 64.621094 L 32.3125 67.707031 L 34.324219 67.707031 L 34.324219 78.449219 L 44.871094 78.449219 L 36.945312 76.582031 L 36.945312 72.5625 L 44.871094 69.199219 L 44.871094 67.707031 L 35.949219 67.707031 L 35.949219 64.621094 L 44.871094 64.621094 L 38.617188 63.257812 C 40.871094 62.679688 43.117188 61.671875 44.871094 59.960938 L 44.871094 58.453125 L 46.140625 58.453125 C 46.605469 57.785156 47.007812 57.039062 47.324219 56.207031 C 47.449219 55.890625 47.558594 55.5625 47.65625 55.21875 L 47.597656 55.21875 C 51.484375 53.726562 54.882812 51.25 57.496094 48.097656 C 57.496094 48.097656 57.496094 48.09375 57.5 48.09375 C 58.480469 46.832031 59.144531 45.839844 59.363281 45.507812 C 59.386719 45.46875 59.40625 45.4375 59.421875 45.417969 C 59.425781 45.40625 59.429688 45.398438 59.4375 45.394531 C 55.839844 49.605469 51.605469 52.164062 48.546875 53.613281 C 35.488281 57.816406 26.683594 46.875 26.679688 46.871094 C 24.417969 42.3125 24.160156 37.859375 24.160156 37.859375 L 21.367188 5.492188 L 45.976562 4.488281 L 59.667969 3.929688 L 64.859375 3.71875 L 65.464844 3.695312 L 21.214844 3.695312 L 21.117188 2.5625 L 20.933594 0.417969 L 14.164062 0.417969 L 14.164062 3.695312 L 12.558594 3.695312 L 12.558594 3.699219 L 12.726562 5.839844 L 14.269531 5.777344 Z M 26.683594 46.878906 C 26.683594 46.875 26.683594 46.875 26.683594 46.875 L 26.683594 46.871094 Z M 74.054688 20.023438 C 74.046875 21.363281 73.871094 22.855469 73.378906 24.355469 C 72.265625 29.023438 65.929688 37.777344 65.929688 37.777344 C 64.066406 38.871094 62.570312 39.410156 62.03125 39.582031 C 62.34375 39.210938 62.839844 35.800781 62.988281 34.722656 C 63.015625 34.519531 63.03125 34.398438 63.03125 34.398438 C 63.6875 33.96875 64.695312 33.253906 65.816406 32.277344 C 66.097656 32.03125 66.390625 31.769531 66.6875 31.488281 C 69.417969 28.875 72.410156 24.832031 72.410156 19.640625 C 72.410156 15.21875 70.53125 13.726562 68.519531 13.394531 C 68.203125 13.34375 67.886719 13.320312 67.570312 13.320312 C 66.46875 13.316406 65.402344 13.578125 64.660156 13.816406 L 63.03125 34.398438 L 64.660156 13.820312 L 65.097656 8.296875 L 65.105469 8.296875 L 65.109375 8.1875 C 65.585938 8.105469 66.207031 8.082031 66.8125 8.082031 L 66.820312 8.082031 C 67.875 8.089844 68.878906 8.175781 69.003906 8.1875 C 69.011719 8.1875 69.015625 8.1875 69.015625 8.1875 C 68.9375 9.023438 68.816406 10.304688 68.664062 11.878906 C 69.917969 12.085938 72.222656 12.753906 73.277344 14.832031 L 73.277344 14.828125 C 73.277344 14.828125 73.28125 14.832031 73.28125 14.839844 C 73.449219 15.171875 73.589844 15.542969 73.683594 15.953125 C 74.023438 16.984375 74.273438 18.371094 74.054688 20.027344 Z M 24.09375 93.074219 L 66.359375 93.074219 L 65.265625 94.570312 L 15.050781 94.570312 L 13.929688 93.074219 C 15.035156 88.972656 18.144531 86.035156 20.832031 84.179688 C 22.195312 83.234375 23.453125 82.570312 24.277344 82.175781 L 24.277344 78.449219 L 32.3125 78.449219 L 32.3125 81.933594 L 55.019531 81.933594 L 25.703125 86.113281 C 25.703125 86.113281 23.628906 90.144531 24.09375 93.074219 Z M 24.09375 93.074219 " fill-opacity="1" fill-rule="nonzero"/></g><g clip-path="url(#efa1f563b1)"><path fill="#8c3c8d" d="M 34.472656 61.722656 L 34.324219 58.453125 L 44.871094 58.453125 Z M 24.277344 82.175781 C 23.453125 82.570312 22.195312 83.234375 20.832031 84.179688 C 18.144531 86.035156 15.035156 88.972656 13.929688 93.074219 L 15.050781 94.570312 L 25.007812 94.570312 L 24.09375 93.074219 L 19.136719 93.074219 C 18.410156 90.109375 20.785156 87.332031 23.21875 85.359375 C 25.433594 83.5625 27.695312 82.429688 27.695312 82.429688 L 27.695312 78.449219 L 24.277344 78.449219 Z M 34.472656 70.691406 L 44.871094 67.707031 L 34.472656 67.707031 Z M 34.46875 55.648438 C 34.039062 55.527344 33.621094 55.382812 33.210938 55.21875 C 32.738281 55.03125 32.277344 54.820312 31.832031 54.585938 C 31.832031 54.585938 31.828125 54.585938 31.828125 54.585938 C 31.824219 54.585938 31.824219 54.585938 31.824219 54.585938 C 31.589844 54.464844 31.363281 54.335938 31.136719 54.199219 C 31.132812 54.199219 31.132812 54.199219 31.132812 54.199219 C 30.832031 54.019531 30.535156 53.832031 30.242188 53.636719 C 30.242188 53.636719 30.242188 53.632812 30.238281 53.632812 C 30.238281 53.632812 30.238281 53.628906 30.238281 53.628906 C 30.234375 53.628906 30.230469 53.625 30.230469 53.625 C 29.066406 52.832031 27.996094 51.902344 27.023438 50.894531 C 20.414062 43.722656 19.40625 35.917969 19.277344 34.546875 L 16.921875 5.671875 L 16.886719 5.238281 L 40.800781 3.691406 L 16.761719 3.691406 L 16.648438 2.292969 L 16.496094 0.417969 L 12.296875 0.417969 L 12.558594 3.691406 L 12.558594 3.699219 L 12.726562 5.839844 L 12.785156 6.527344 L 12.921875 8.261719 C 12.8125 8.242188 12.703125 8.222656 12.59375 8.207031 C 12.761719 9.765625 12.933594 11.582031 13.097656 13.679688 C 13.1875 13.707031 13.277344 13.730469 13.363281 13.757812 L 14.953125 33.730469 L 14.972656 33.730469 C 14.980469 33.914062 14.992188 34.09375 15 34.277344 C 14.753906 34.113281 14.46875 33.914062 14.15625 33.6875 C 14.269531 34.835938 14.417969 35.925781 14.601562 36.957031 C 14.675781 37.367188 14.75 37.769531 14.835938 38.164062 C 14.90625 38.503906 14.980469 38.835938 15.058594 39.164062 C 15.398438 39.304688 15.683594 39.410156 15.902344 39.488281 C 16.015625 39.878906 16.140625 40.265625 16.269531 40.648438 C 18.726562 47.746094 24.417969 53.335938 31.582031 55.652344 L 34.472656 55.652344 C 34.472656 55.652344 34.46875 55.648438 34.46875 55.648438 Z M 34.46875 55.648438 " fill-opacity="1" fill-rule="nonzero"/></g></g></g></g><g clip-path="url(#953020690d)"><g clip-path="url(#d81e21f271)"><g clip-path="url(#8e58abc5b0)"><path fill="#8c3c8d" d="M 219.441406 204.902344 L 235.066406 159.308594 C 235.179688 158.976562 235 158.613281 234.667969 158.5 L 209.054688 149.722656 L 186.394531 141.957031 C 186.0625 141.84375 185.699219 142.023438 185.585938 142.355469 L 169.996094 187.859375 C 166.449219 189.359375 162.78125 190.632812 159.082031 191.644531 C 154.8125 192.8125 150.410156 193.65625 146 194.148438 C 144.019531 194.371094 142.265625 195.371094 141.0625 196.96875 C 139.851562 198.574219 139.375 200.550781 139.71875 202.566406 C 140.515625 207.195312 144.535156 211.0625 150.035156 212.945312 C 151.980469 213.613281 154.113281 214.03125 156.355469 214.148438 C 158.925781 214.222656 161.527344 214.351562 164.09375 214.519531 C 165.917969 217.238281 168.964844 219.429688 172.695312 220.710938 C 174.640625 221.375 176.773438 221.796875 179.015625 221.910156 C 184.363281 222.070312 189.777344 222.433594 195.109375 222.992188 C 198.628906 223.359375 202.1875 223.820312 205.683594 224.359375 C 211.152344 225.203125 216.429688 222.261719 218.523438 217.199219 L 218.574219 217.070312 C 220.632812 211.980469 220.027344 207.332031 219.441406 204.902344 Z M 213.488281 203.542969 L 210.230469 203.660156 C 209.660156 203.679688 209.136719 203.425781 208.796875 202.96875 C 208.449219 202.5 208.359375 201.910156 208.550781 201.351562 L 212.398438 190.121094 C 212.511719 189.792969 212.71875 189.515625 213 189.320312 L 226.746094 179.65625 L 218.367188 204.109375 C 216.769531 203.691406 215.132812 203.492188 213.488281 203.542969 Z M 192.652344 195.621094 C 192.511719 195.683594 192.367188 195.734375 192.226562 195.796875 C 191.761719 195.773438 191.292969 195.765625 190.828125 195.78125 L 187.570312 195.894531 C 187 195.914062 186.480469 195.664062 186.136719 195.203125 C 185.789062 194.734375 185.699219 194.144531 185.890625 193.585938 L 189.738281 182.355469 C 189.847656 182.035156 190.0625 181.75 190.339844 181.554688 L 199.738281 174.949219 Z M 184.199219 150.335938 L 205.652344 157.6875 L 204.359375 161.457031 L 182.90625 154.105469 Z M 206.855469 158.097656 L 231.265625 166.460938 L 229.972656 170.234375 L 205.566406 161.867188 Z M 231.679688 165.257812 L 207.269531 156.894531 L 209.242188 151.132812 L 233.652344 159.496094 Z M 208.039062 150.722656 L 206.066406 156.480469 L 184.609375 149.128906 L 186.585938 143.371094 Z M 156.40625 212.875 C 148.441406 212.460938 141.953125 208.035156 140.964844 202.316406 C 140.6875 200.6875 141.082031 199.058594 142.078125 197.738281 C 143.070312 196.421875 144.511719 195.597656 146.140625 195.414062 C 149.167969 195.074219 152.1875 194.5625 155.164062 193.90625 C 156.863281 196.925781 157.878906 200.078125 158.164062 203.277344 C 158.449219 206.503906 158.046875 209.816406 157.011719 212.898438 C 156.808594 212.890625 156.605469 212.878906 156.40625 212.875 Z M 158.332031 212.949219 C 159.339844 209.804688 159.722656 206.441406 159.433594 203.164062 C 159.140625 199.902344 158.136719 196.695312 156.460938 193.621094 C 157.453125 193.386719 158.441406 193.140625 159.417969 192.875 C 163.261719 191.824219 167.078125 190.492188 170.753906 188.917969 C 170.921875 188.847656 171.046875 188.710938 171.105469 188.539062 L 182.492188 155.308594 L 203.945312 162.660156 L 200.4375 172.898438 L 189.605469 180.511719 C 189.105469 180.867188 188.730469 181.359375 188.53125 181.941406 L 184.683594 193.171875 C 184.359375 194.121094 184.519531 195.164062 185.113281 195.960938 C 185.480469 196.457031 185.980469 196.816406 186.542969 197.007812 C 186.882812 197.125 187.246094 197.179688 187.617188 197.167969 L 188.828125 197.125 C 186.496094 197.984375 184.128906 198.757812 181.742188 199.410156 C 177.46875 200.578125 173.066406 201.421875 168.65625 201.914062 C 166.675781 202.132812 164.921875 203.136719 163.71875 204.734375 C 162.511719 206.339844 162.03125 208.316406 162.375 210.332031 C 162.546875 211.328125 162.878906 212.285156 163.332031 213.199219 C 161.664062 213.097656 160 213.015625 158.332031 212.949219 Z M 179.066406 220.640625 C 171.101562 220.226562 164.609375 215.800781 163.625 210.082031 C 163.347656 208.449219 163.742188 206.824219 164.738281 205.5 C 165.726562 204.1875 167.167969 203.359375 168.800781 203.179688 C 171.824219 202.839844 174.84375 202.328125 177.824219 201.671875 C 179.523438 204.691406 180.535156 207.839844 180.824219 211.042969 C 181.109375 214.269531 180.707031 217.585938 179.671875 220.664062 C 179.46875 220.65625 179.265625 220.644531 179.066406 220.640625 Z M 217.394531 216.59375 L 217.34375 216.714844 C 215.476562 221.230469 210.761719 223.855469 205.878906 223.101562 C 202.363281 222.558594 198.78125 222.09375 195.238281 221.722656 C 190.519531 221.230469 185.734375 220.898438 180.992188 220.714844 C 182 217.570312 182.382812 214.207031 182.089844 210.929688 C 181.800781 207.664062 180.796875 204.457031 179.121094 201.382812 C 180.113281 201.152344 181.101562 200.90625 182.078125 200.636719 C 185.621094 199.667969 189.128906 198.453125 192.53125 197.042969 C 192.5625 197.03125 192.59375 197.019531 192.625 197.003906 C 192.886719 196.894531 193.152344 196.792969 193.414062 196.683594 C 193.578125 196.609375 193.707031 196.472656 193.765625 196.304688 L 205.152344 163.074219 L 229.5625 171.4375 L 227.449219 177.605469 L 212.265625 188.277344 C 211.761719 188.628906 211.390625 189.125 211.191406 189.707031 L 207.34375 200.9375 C 207.019531 201.882812 207.179688 202.925781 207.773438 203.726562 C 208.140625 204.21875 208.640625 204.582031 209.203125 204.773438 C 209.542969 204.890625 209.90625 204.945312 210.277344 204.933594 L 213.53125 204.816406 C 215.121094 204.765625 216.707031 204.964844 218.246094 205.394531 C 218.78125 207.714844 219.269531 211.957031 217.394531 216.59375 Z M 217.394531 216.59375 " fill-opacity="1" fill-rule="nonzero"/></g></g></g><g fill="#ffffff" fill-opacity="1"><g transform="translate(114.624873, 170.912267)"><g><path d="M -8.765625 -16.515625 L -11.96875 -14.28125 L -13.765625 -7.8125 L -12.15625 -4.28125 L -8.125 -3.15625 L -5.34375 -5.09375 L -3.109375 -9.9375 L -2.625 -10.25 L -1.625 -9.96875 L -1.328125 -9.3125 L -2.171875 -6.21875 L -3.859375 -6.234375 L -4.953125 -2.28125 L -2.265625 -1.53125 L 1.0625 -3.859375 L 2.828125 -10.203125 L 1.171875 -13.921875 L -3.046875 -15.09375 L -5.65625 -13.15625 L -7.921875 -8.28125 L -8.40625 -7.921875 L -9.28125 -8.15625 L -9.546875 -8.828125 L -8.734375 -11.765625 L -7.078125 -11.765625 L -5.96875 -15.734375 Z M -8.765625 -16.515625 "/></g></g></g><g fill="#ffffff" fill-opacity="1"><g transform="translate(120.502629, 152.025927)"><g><path d="M 0.4375 -18.046875 L -4.96875 -21.34375 L -12.90625 -8.3125 L -7.5 -5.015625 L -5.8125 -7.796875 L -7.953125 -9.609375 L -7.0625 -11.046875 L -0.21875 -6.875 L -0.8125 -5.0625 L 2.03125 -3.328125 L 6.34375 -10.390625 L 3.5 -12.125 L 2.140625 -10.75 L -4.703125 -14.921875 L -3.828125 -16.375 L -1.234375 -15.3125 Z M 0.4375 -18.046875 "/></g></g></g><g fill="#ffffff" fill-opacity="1"><g transform="translate(132.088521, 134.406847)"><g><path d="M -2.421875 -13.390625 L -0.125 -15.46875 L 0.578125 -15.5 L 1.65625 -14.296875 L 1.546875 -13.609375 L -0.75 -11.53125 Z M 6.5625 -5.921875 L 4.328125 -8.390625 L 2.796875 -7.609375 L 1.3125 -9.25 L 2.15625 -10.015625 L 8.78125 -7.921875 L 11.875 -10.71875 L 9.5 -13.34375 L 8.46875 -12.734375 L 5.453125 -13.578125 L 5.828125 -16.421875 L 2.75 -19.828125 L -1.109375 -19.6875 L -9.578125 -12.046875 L -7.328125 -9.5625 L -5.796875 -10.34375 L -0.578125 -4.5625 L -1.515625 -3.125 L 0.71875 -0.65625 Z M 6.5625 -5.921875 "/></g></g></g><g fill="#ffffff" fill-opacity="1"><g transform="translate(148.413491, 120.610899)"><g><path d="M 9.71875 -17.859375 L 8.28125 -20.890625 L 1.875 -17.875 L 3.3125 -14.84375 L 4.390625 -14.859375 L 7.5 -8.28125 L 7.1875 -7.5625 L 4.90625 -6.484375 L 4.15625 -6.703125 L 1.046875 -13.28125 L 1.75 -14.109375 L 0.3125 -17.140625 L -6.203125 -14.0625 L -4.765625 -11.03125 L -3.078125 -11.328125 L 0.84375 -3.03125 L 4.484375 -2.109375 L 10.734375 -5.0625 L 12.3125 -8.453125 L 8.390625 -16.75 Z M 9.71875 -17.859375 "/></g></g></g><g fill="#ffffff" fill-opacity="1"><g transform="translate(168.332037, 111.722499)"><g><path d="M 18.546875 -14.265625 L 18.15625 -17.59375 L 11.484375 -16.8125 L 9.421875 -11.8125 L 6.296875 -16.203125 L -0.828125 -15.359375 L -0.4375 -12.03125 L 1.265625 -11.796875 L 2.171875 -4.046875 L 0.578125 -3.421875 L 0.96875 -0.109375 L 8.953125 -1.046875 L 8.5625 -4.359375 L 6.421875 -4.546875 L 5.8125 -9.765625 L 9.109375 -5.390625 L 10.8125 -5.59375 L 13.015625 -10.609375 L 13.625 -5.390625 L 11.578125 -4.71875 L 11.96875 -1.40625 L 19.953125 -2.34375 L 19.5625 -5.65625 L 17.90625 -5.890625 L 17 -13.640625 Z M 18.546875 -14.265625 "/></g></g></g><g fill="#ffffff" fill-opacity="1"><g transform="translate(194.279171, 109.872792)"><g><path d="M 17.65625 -9.328125 L 15.0625 -12.59375 L 4.03125 -14.859375 L 3.359375 -11.5625 L 4.890625 -10.796875 L 3.328125 -3.15625 L 1.625 -3.078125 L 0.953125 0.1875 L 8.65625 1.78125 L 9.328125 -1.46875 L 7.78125 -2.234375 L 8.09375 -3.734375 L 13.046875 -2.71875 L 16.703125 -4.6875 Z M 12.421875 -9.265625 L 12.875 -8.6875 L 12.578125 -7.1875 L 11.9375 -6.828125 L 8.859375 -7.453125 L 9.34375 -9.890625 Z M 12.421875 -9.265625 "/></g></g></g><g fill="#ffffff" fill-opacity="1"><g transform="translate(214.817073, 114.727801)"><g><path d="M 20.65625 -2.390625 L 22.265625 -5.34375 L 15.84375 -8.859375 L 14.234375 -5.90625 L 14.96875 -5.015625 L 10.546875 -4.03125 L 11.96875 -6.65625 L 13.09375 -6.53125 L 14.703125 -9.484375 L 8.1875 -13.015625 L 6.578125 -10.0625 L 7.84375 -8.90625 L 4.109375 -2.0625 L 2.4375 -2.453125 L 0.84375 0.46875 L 7.390625 4.03125 L 8.984375 1.109375 L 8.234375 0.1875 L 9.015625 -1.21875 L 11.25 -1.671875 L 11.28125 1.859375 L 10.109375 1.71875 L 8.515625 4.640625 L 14.921875 8.140625 L 16.515625 5.21875 L 15.359375 4.078125 L 15.421875 -2.421875 L 18.59375 -3.03125 Z M 20.65625 -2.390625 "/></g></g></g><g fill="#ffffff" fill-opacity="1"><g transform="translate(234.284491, 126.307069)"><g><path d="M 13.296875 -2.953125 L 15.46875 -0.71875 L 15.515625 -0.03125 L 14.34375 1.09375 L 13.671875 1.03125 L 11.5 -1.203125 Z M 6.171875 6.328125 L 8.546875 4 L 7.703125 2.5 L 9.296875 0.9375 L 10.09375 1.765625 L 8.265625 8.46875 L 11.171875 11.453125 L 13.703125 8.96875 L 13.046875 7.984375 L 13.78125 4.9375 L 16.625 5.203125 L 19.90625 1.984375 L 19.625 -1.875 L 11.65625 -10.046875 L 9.265625 -7.6875 L 10.109375 -6.203125 L 4.515625 -0.75 L 3.046875 -1.640625 L 0.671875 0.6875 Z M 6.171875 6.328125 "/></g></g></g><g fill="#ffffff" fill-opacity="1"><g transform="translate(248.565366, 142.388523)"><g><path d="M 15.046875 2.1875 L 17.96875 0.53125 L 14.078125 -6.296875 L 11.15625 -4.640625 L 11.609375 -2.96875 L 4.828125 0.890625 L 3.625 -0.34375 L 0.734375 1.296875 L 4.625 8.125 L 7.515625 6.484375 L 7.0625 4.8125 L 13.84375 0.953125 Z M 15.046875 2.1875 "/></g></g></g><g fill="#ffffff" fill-opacity="1"><g transform="translate(256.211951, 156.659235)"><g><path d="M 13.3125 10.71875 L 16.109375 9.953125 L 17.703125 6.375 L 15.96875 0.09375 L 12.34375 -2.421875 L 3.09375 0.15625 L 1.203125 4.328125 L 2.296875 8.25 L 3.828125 9.3125 L 2.796875 10.0625 L 3.71875 13.390625 L 12.46875 10.953125 L 10.703125 4.609375 L 8.171875 5.3125 L 8.734375 7.296875 L 6.703125 7.875 L 5.953125 7.359375 L 5.265625 4.90625 L 5.609375 4.125 L 12.125 2.3125 L 12.78125 2.8125 L 13.65625 5.9375 L 12.21875 6.78125 Z M 13.3125 10.71875 "/></g></g></g><g fill="#ffffff" fill-opacity="1"><g transform="translate(117.520223, 244.090614)"><g><path d="M 16.9375 4.734375 L 21.09375 1.265625 L 12.40625 -9.109375 L 9.828125 -6.953125 L 10.546875 -5.40625 L 4.578125 -0.40625 L 3.171875 -1.390625 L 0.625 0.75 L 9.3125 11.125 L 13.4375 7.671875 L 11.359375 5.203125 L 9.84375 5.890625 L 7.484375 3.0625 L 9.546875 1.34375 L 11.90625 4.171875 L 13.90625 2.484375 L 11.546875 -0.34375 L 13.453125 -1.9375 L 15.8125 0.890625 L 14.859375 2.265625 Z M 16.9375 4.734375 "/></g></g></g><g fill="#ffffff" fill-opacity="1"><g transform="translate(133.498825, 261.361999)"><g><path d="M 18.453125 -2.96875 L 17.40625 -6.71875 L 11.859375 -10.515625 L 7.96875 -10.125 L 5.609375 -6.65625 L 6.546875 -3.40625 L 10.40625 0.28125 L 10.546875 0.828125 L 9.96875 1.671875 L 9.25 1.75 L 6.609375 -0.046875 L 7.140625 -1.625 L 3.75 -3.9375 L 2.1875 -1.640625 L 3.296875 2.25 L 8.75 5.96875 L 12.8125 5.609375 L 15.28125 2 L 14.28125 -1.109375 L 10.390625 -4.8125 L 10.21875 -5.390625 L 10.734375 -6.140625 L 11.4375 -6.171875 L 13.953125 -4.453125 L 13.421875 -2.890625 L 16.8125 -0.5625 Z M 18.453125 -2.96875 "/></g></g></g><g fill="#ffffff" fill-opacity="1"><g transform="translate(152.829233, 273.31855)"><g><path d="M 17.6875 -3.609375 L 19.703125 -9.640625 L 5.21875 -14.453125 L 3.203125 -8.421875 L 6.28125 -7.40625 L 7.59375 -9.90625 L 9.1875 -9.375 L 6.640625 -1.765625 L 4.734375 -1.921875 L 3.6875 1.234375 L 11.546875 3.84375 L 12.59375 0.6875 L 10.9375 -0.328125 L 13.484375 -7.9375 L 15.109375 -7.40625 L 14.625 -4.625 Z M 17.6875 -3.609375 "/></g></g></g><g fill="#ffffff" fill-opacity="1"><g transform="translate(175.825202, 279.523778)"><g/></g></g><g fill="#ffffff" fill-opacity="1"><g transform="translate(191.949761, 280.221135)"><g><path d="M 10.203125 -1.296875 L 9.78125 -4.59375 L 7.65625 -4.765625 L 6.1875 -16.265625 L 3.9375 -15.984375 L -0.796875 -13.984375 L 0.515625 -10.953125 L 2.171875 -11.671875 L 3.140625 -4.1875 L 1.09375 -3.484375 L 1.515625 -0.1875 Z M 10.203125 -1.296875 "/></g></g></g><g fill="#ffffff" fill-opacity="1"><g transform="translate(211.164925, 276.974621)"><g><path d="M 11.875 -7.453125 L 8.09375 -17 L 4.34375 -18.234375 L -1.96875 -15.75 L -3.8125 -12.28125 L -2.265625 -8.375 L 0.953125 -7.328125 L 6.21875 -9.421875 L 7.046875 -7.328125 L 6.734375 -6.71875 L 3.75 -5.53125 L 2.75 -6.875 L -1.0625 -5.359375 L -0.015625 -2.734375 L 3.796875 -1.5 L 9.953125 -3.9375 Z M 1.375 -12.984375 L 3.828125 -13.953125 L 4.5 -13.71875 L 5.171875 -12.046875 L 2.125 -10.84375 L 1.53125 -11 L 1 -12.328125 Z M 1.375 -12.984375 "/></g></g></g><g fill="#ffffff" fill-opacity="1"><g transform="translate(231.967941, 267.558423)"><g><path d="M 9.4375 -10.375 L 3.234375 -18.546875 L -0.71875 -18.734375 L -6.125 -14.640625 L -6.984375 -10.796875 L -4.4375 -7.453125 L -1.046875 -7.3125 L 3.46875 -10.734375 L 4.828125 -8.9375 L 4.6875 -8.28125 L 2.125 -6.34375 L 0.8125 -7.359375 L -2.46875 -4.875 L -0.765625 -2.640625 L 3.25 -2.46875 L 8.53125 -6.46875 Z M -2.15625 -12.875 L -0.046875 -14.46875 L 0.671875 -14.421875 L 1.765625 -12.984375 L -0.84375 -11.015625 L -1.46875 -11.015625 L -2.328125 -12.15625 Z M -2.15625 -12.875 "/></g></g></g><g fill="#ffffff" fill-opacity="1"><g transform="translate(249.312739, 252.913757)"><g><path d="M 6.40625 -8.046875 L 3.796875 -10.125 L 2.140625 -8.75 L -6.921875 -15.96875 L -8.328125 -14.203125 L -10.328125 -9.46875 L -7.28125 -8.21875 L -6.59375 -9.890625 L -0.6875 -5.1875 L -1.65625 -3.28125 L 0.953125 -1.203125 Z M 6.40625 -8.046875 "/></g></g></g></svg>